<svg width="141" height="141" viewBox="0 0 141 141" fill="none" xmlns="http://www.w3.org/2000/svg">
<path d="M63.6501 1.41673C67.7291 -0.472242 72.4379 -0.472242 76.5169 1.41673L136.362 29.0669C138.689 30.1345 140.167 32.4615 140.167 35.0349C140.167 37.6083 138.689 39.9353 136.362 41.003L76.5169 68.6531C72.4379 70.5421 67.7291 70.5421 63.6501 68.6531L3.80532 41.003C1.47832 39.9079 0 37.5809 0 35.0349C0 32.4889 1.47832 30.1345 3.80532 29.0669L63.6501 1.41673ZM13.168 59.7831L58.1474 80.5618C65.7307 84.066 74.4637 84.066 82.047 80.5618L127.026 59.7831L136.362 64.1086C138.689 65.1763 140.167 67.5033 140.167 70.0767C140.167 72.65 138.689 74.977 136.362 76.0447L76.5169 103.695C72.4379 105.584 67.7291 105.584 63.6501 103.695L3.80532 76.0447C1.47832 74.9497 0 72.6227 0 70.0767C0 67.5307 1.47832 65.1763 3.80532 64.1086L13.1407 59.7831H13.168ZM3.80532 99.1504L13.1407 94.8249L58.12 115.604C65.7033 119.108 74.4363 119.108 82.0196 115.604L126.999 94.8249L136.334 99.1504C138.661 100.218 140.14 102.545 140.14 105.118C140.14 107.692 138.661 110.019 136.334 111.086L76.4896 138.737C72.4105 140.626 67.7018 140.626 63.6227 138.737L3.80532 111.086C1.47832 109.991 0 107.664 0 105.118C0 102.572 1.47832 100.218 3.80532 99.1504Z" fill="#EF5F17"/>
</svg>
