<?xml version="1.0" encoding="UTF-8"?>
<svg id="Layer_2" data-name="Layer 2" xmlns="http://www.w3.org/2000/svg" viewBox="0 0 814.07 153.08">
  <defs>
    <style>
      .cls-1 {
        fill: #ff5100;
      }

      .cls-2 {
        fill: #53575a;
      }
    </style>
  </defs>
  <g id="Capa_1" data-name="Capa 1">
    <g>
      <g>
        <rect class="cls-2" x="369.18" width="24.87" height="153.01"/>
        <rect class="cls-2" x="532.72" width="24.86" height="153.01"/>
        <rect class="cls-2" x="488.72" y="38.25" width="24.87" height="114.76"/>
        <g>
          <rect class="cls-2" y="38.25" width="24.87" height="114.76"/>
          <path class="cls-2" d="M61.21,38.25h-26.3v22.95h26.3v91.81h24.86V63.12c0-13.74-11.13-24.87-24.86-24.87"/>
          <path class="cls-2" d="M122.42,38.25h-26.3v22.95h26.3v91.81h24.87V63.12c0-13.74-11.14-24.87-24.87-24.87"/>
        </g>
        <path class="cls-2" d="M191.28,38.25c-13.73,0-24.87,11.13-24.87,24.87v65.03c0,13.75,11.14,24.87,24.87,24.87h43.52v-22.95h-43.52V38.25Z"/>
        <path class="cls-2" d="M601.58,38.25c-13.72,0-24.87,11.13-24.87,24.87v65.03c0,13.75,11.14,24.87,24.87,24.87h77.46v-22.95h-77.46V38.25Z"/>
        <path class="cls-2" d="M413.17,38.25v89.89c0,13.75,11.13,24.87,24.87,24.87h40.65v-22.95h-40.65V38.25h-24.87Z"/>
        <path class="cls-2" d="M244.84,153.01c13.73,0,24.87-11.12,24.87-24.87V63.12c0-13.73-11.14-24.86-24.87-24.86h-43.52v22.95h43.52v91.81Z"/>
        <path class="cls-2" d="M359.13,61.21v-22.95h-45.43c-13.74,0-24.87,11.13-24.87,24.86v65.03c0,13.74,11.13,24.87,24.87,24.87h45.43v-22.95h-45.43V61.21h45.43Z"/>
        <path class="cls-2" d="M654.19,38.25h-42.56v22.95h42.56v23.91h-42.56v22.95h67.42v-44.95c0-13.74-11.14-24.87-24.86-24.87"/>
      </g>
      <polygon class="cls-2" points="757.58 68.98 782.21 38.19 814.07 38.19 773.52 88.88 757.58 68.98"/>
      <polygon class="cls-2" points="757.58 122.29 782.21 153.08 814.07 153.08 773.52 102.39 757.58 122.29"/>
      <polygon class="cls-1" points="688.22 38.19 720.07 38.19 766.07 95.7 720.17 153.08 688.22 153.08 734 95.63 688.22 38.19"/>
    </g>
  </g>
</svg>