<svg width="26" height="26" viewBox="0 0 26 26" fill="none" xmlns="http://www.w3.org/2000/svg">
<path d="M9.06343 3.46135L10.8875 5.28541L5.28531 10.8876L3.46124 9.06354C2.90874 8.5151 2.59999 7.7676 2.59999 6.9876C2.59999 6.2076 2.90874 5.4601 3.46124 4.91166L4.91156 3.46135C5.45999 2.90885 6.20749 2.6001 6.98749 2.6001C7.76749 2.6001 8.51499 2.90885 9.06343 3.46135ZM12.2647 6.6626L21.0072 15.401C21.4419 15.8357 21.7587 16.3801 21.9253 16.9732L23.3634 22.1651C23.4569 22.5023 23.3634 22.8679 23.1116 23.1157C22.8597 23.3635 22.4981 23.461 22.1609 23.3676L16.9691 21.9254C16.3759 21.7588 15.8356 21.446 15.3969 21.0073L6.66249 12.2648L12.2647 6.6626Z" fill="#54575A"/>
</svg>
