<svg width="25" height="25" viewBox="0 0 25 25" fill="none" xmlns="http://www.w3.org/2000/svg">
<path d="M17.7109 6.11719C16.1845 4.68789 14.2035 3.90439 12.102 3.90625C8.31982 3.90957 5.05469 6.50283 4.15317 10.1001C4.08755 10.362 3.85425 10.5469 3.58428 10.5469H0.786279C0.420166 10.5469 0.142041 10.2145 0.209766 9.85469C1.26626 4.24434 6.19204 0 12.1094 0C15.3539 0 18.3003 1.27617 20.4744 3.35376L22.2183 1.60986C22.9565 0.871631 24.2188 1.39448 24.2188 2.43853V8.98438C24.2188 9.63159 23.6941 10.1562 23.0469 10.1562H16.501C15.457 10.1562 14.9341 8.89399 15.6724 8.15571L17.7109 6.11719ZM1.17188 14.0625H7.71772C8.76177 14.0625 9.28462 15.3248 8.54639 16.063L6.50781 18.1016C8.03428 19.531 10.0154 20.3145 12.117 20.3125C15.8972 20.3091 19.1636 17.7176 20.0656 14.1188C20.1312 13.8569 20.3645 13.672 20.6345 13.672H23.4325C23.7986 13.672 24.0768 14.0043 24.009 14.3642C22.9525 19.9744 18.0267 24.2188 12.1094 24.2188C8.86484 24.2188 5.91841 22.9426 3.74438 20.865L2.00049 22.6089C1.26226 23.3471 0 22.8243 0 21.7802V15.2344C0 14.5872 0.524658 14.0625 1.17188 14.0625Z" fill="#53575A"/>
</svg>
