<svg width="19" height="22" viewBox="0 0 19 22" fill="none" xmlns="http://www.w3.org/2000/svg">
<path d="M5.55344 0.889688L5.2 1.95H1.3C0.580937 1.95 0 2.53094 0 3.25C0 3.96906 0.580937 4.55 1.3 4.55H16.9C17.6191 4.55 18.2 3.96906 18.2 3.25C18.2 2.53094 17.6191 1.95 16.9 1.95H13L12.6466 0.889688C12.4678 0.3575 11.9722 0 11.4116 0H6.78844C6.22781 0 5.73219 0.3575 5.55344 0.889688ZM16.9 6.5H1.3L2.15719 19.6259C2.22219 20.6537 3.07531 21.45 4.10312 21.45H14.0969C15.1247 21.45 15.9778 20.6537 16.0428 19.6259L16.9 6.5Z" fill="#54575A"/>
</svg>
