<svg width="181" height="126" viewBox="0 0 181 126" fill="none" xmlns="http://www.w3.org/2000/svg">
<path d="M70.1641 20.0469C70.1641 8.98978 79.1539 0 90.211 0C101.268 0 110.258 8.98978 110.258 20.0469C110.258 31.104 101.268 40.0938 90.211 40.0938C79.1539 40.0938 70.1641 31.104 70.1641 20.0469ZM55.1289 85.1993C55.1289 65.8102 70.8219 50.1172 90.211 50.1172C109.6 50.1172 125.293 65.8102 125.293 85.1993V87.7051C125.293 91.8711 121.941 95.2227 117.775 95.2227H62.6465C58.4805 95.2227 55.1289 91.8711 55.1289 87.7051V85.1993ZM122.787 25.0586C122.787 15.3797 130.649 7.51758 140.328 7.51758C150.007 7.51758 157.869 15.3797 157.869 25.0586C157.869 34.7375 150.007 42.5996 140.328 42.5996C130.649 42.5996 122.787 34.7375 122.787 25.0586ZM131.307 56.5072C134.158 55.5988 137.196 55.1289 140.328 55.1289C156.93 55.1289 170.399 68.5979 170.399 85.1993V88.5509C170.399 92.247 167.392 95.2227 163.727 95.2227H139.044C139.89 92.8735 140.328 90.3363 140.328 87.7051V85.1993C140.328 74.518 137.008 64.6199 131.307 56.5072ZM49.1149 56.5072C43.414 64.6512 40.0938 74.518 40.0938 85.1993V87.7051C40.0938 90.3363 40.5323 92.8735 41.378 95.2227H16.6953C13.0305 95.2227 10.0234 92.2157 10.0234 88.5509V85.1993C10.0234 68.5979 23.4924 55.1289 40.0938 55.1289C43.2261 55.1289 46.2645 55.5988 49.1149 56.5072ZM22.5528 25.0586C22.5528 15.3797 30.4149 7.51758 40.0938 7.51758C49.7727 7.51758 57.6348 15.3797 57.6348 25.0586C57.6348 34.7375 49.7727 42.5996 40.0938 42.5996C30.4149 42.5996 22.5528 34.7375 22.5528 25.0586ZM0 117.775C0 113.609 3.35159 110.258 7.51758 110.258H172.904C177.07 110.258 180.422 113.609 180.422 117.775C180.422 121.941 177.07 125.293 172.904 125.293H7.51758C3.35159 125.293 0 121.941 0 117.775Z" fill="#EF5F17"/>
</svg>
